solid Exported from Blender-3.0.1
facet normal 0.767461 0.554431 -0.321886
outer loop
vertex 0.150438 0.107432 -0.208746
vertex 0.143386 0.155140 -0.143384
vertex 0.203148 0.155140 -0.000895
endloop
endfacet
facet normal 0.505938 0.803849 -0.312814
outer loop
vertex 0.150438 0.107432 -0.208746
vertex 0.203148 0.155140 -0.000895
vertex 0.253993 0.107432 -0.041258
endloop
endfacet
facet normal 0.770315 0.554381 0.315082
outer loop
vertex 0.253993 0.107432 -0.041258
vertex 0.203148 0.155140 -0.000895
vertex 0.144652 0.155140 0.142118
endloop
endfacet
facet normal 0.579821 0.803183 0.136766
outer loop
vertex 0.253993 0.107432 -0.041258
vertex 0.144652 0.155140 0.142118
vertex 0.208786 0.107432 0.150398
endloop
endfacet
facet normal 0.317127 0.559243 0.765949
outer loop
vertex 0.208786 0.107432 0.150398
vertex 0.144652 0.155140 0.142118
vertex 0.000310 0.155140 0.201880
endloop
endfacet
facet normal 0.308551 0.809786 0.499043
outer loop
vertex 0.208786 0.107432 0.150398
vertex 0.000310 0.155140 0.201880
vertex 0.041298 0.107432 0.253953
endloop
endfacet
facet normal -0.118734 0.338105 0.933588
outer loop
vertex -0.150358 0.107432 0.208746
vertex -0.133600 0.044219 0.233770
vertex 0.070831 0.044219 0.259770
endloop
endfacet
facet normal -0.229540 -0.017692 0.973138
outer loop
vertex -0.150358 0.107432 0.208746
vertex 0.070831 0.044219 0.259770
vertex 0.041298 0.107432 0.253953
endloop
endfacet
facet normal -0.750619 0.580911 0.314822
outer loop
vertex -0.150358 0.107432 0.208746
vertex -0.140850 0.155140 0.143384
vertex -0.200612 0.155140 0.000895
endloop
endfacet
facet normal -0.495504 0.812784 0.306363
outer loop
vertex -0.150358 0.107432 0.208746
vertex -0.200612 0.155140 0.000895
vertex -0.253913 0.107432 0.041258
endloop
endfacet
facet normal -0.753351 0.580957 -0.308143
outer loop
vertex -0.253913 0.107432 0.041258
vertex -0.200612 0.155140 0.000895
vertex -0.142116 0.155140 -0.142118
endloop
endfacet
facet normal -0.566159 0.813407 -0.133543
outer loop
vertex -0.253913 0.107432 0.041258
vertex -0.142116 0.155140 -0.142118
vertex -0.208706 0.107432 -0.150398
endloop
endfacet
facet normal 0.000000 1.000000 -0.000000
outer loop
vertex 0.144652 0.155140 0.142118
vertex 0.203148 0.155140 -0.000895
vertex 0.143386 0.155140 -0.143384
endloop
endfacet
facet normal 0.000000 1.000000 0.000000
outer loop
vertex 0.143386 0.155140 -0.143384
vertex 0.000310 0.155140 -0.201880
vertex -0.142116 0.155140 -0.142118
endloop
endfacet
facet normal 0.000000 1.000000 0.000000
outer loop
vertex -0.142116 0.155140 -0.142118
vertex -0.200612 0.155140 0.000895
vertex -0.140850 0.155140 0.143384
endloop
endfacet
facet normal 0.000000 1.000000 0.000000
outer loop
vertex -0.140850 0.155140 0.143384
vertex 0.000310 0.155140 0.201880
vertex 0.144652 0.155140 0.142118
endloop
endfacet
facet normal 0.000000 1.000000 -0.000000
outer loop
vertex 0.144652 0.155140 0.142118
vertex 0.143386 0.155140 -0.143384
vertex -0.142116 0.155140 -0.142118
endloop
endfacet
facet normal 0.000000 1.000000 0.000000
outer loop
vertex -0.142116 0.155140 -0.142118
vertex -0.140850 0.155140 0.143384
vertex 0.144652 0.155140 0.142118
endloop
endfacet
facet normal -0.316966 0.573510 -0.755393
outer loop
vertex -0.208706 0.107432 -0.150398
vertex -0.142116 0.155140 -0.142118
vertex 0.000310 0.155140 -0.201880
endloop
endfacet
facet normal -0.307682 0.810981 -0.497637
outer loop
vertex -0.208706 0.107432 -0.150398
vertex 0.000310 0.155140 -0.201880
vertex -0.041219 0.107432 -0.253953
endloop
endfacet
facet normal 0.118741 0.337973 -0.933635
outer loop
vertex 0.150438 0.107432 -0.208746
vertex 0.133600 0.044219 -0.233770
vertex -0.070831 0.044219 -0.259770
endloop
endfacet
facet normal 0.229538 -0.017980 -0.973134
outer loop
vertex 0.150438 0.107432 -0.208746
vertex -0.070831 0.044219 -0.259770
vertex -0.041219 0.107432 -0.253953
endloop
endfacet
facet normal 0.000000 -1.000000 0.000000
outer loop
vertex -0.147345 -0.149457 -0.147345
vertex -0.000000 -0.149457 -0.208377
vertex 0.147345 -0.149457 -0.147345
endloop
endfacet
facet normal 0.000000 -1.000000 0.000000
outer loop
vertex 0.147345 -0.149457 -0.147345
vertex 0.208377 -0.149457 0.000000
vertex 0.147345 -0.149457 0.147345
endloop
endfacet
facet normal 0.000000 -1.000000 0.000000
outer loop
vertex 0.147345 -0.149457 0.147345
vertex -0.000000 -0.149457 0.208377
vertex -0.147345 -0.149457 0.147345
endloop
endfacet
facet normal 0.000000 -1.000000 0.000000
outer loop
vertex -0.147345 -0.149457 0.147345
vertex -0.208377 -0.149457 -0.000000
vertex -0.147345 -0.149457 -0.147345
endloop
endfacet
facet normal 0.000000 -1.000000 0.000000
outer loop
vertex -0.147345 -0.149457 -0.147345
vertex 0.147345 -0.149457 -0.147345
vertex 0.147345 -0.149457 0.147345
endloop
endfacet
facet normal 0.000000 -1.000000 -0.000000
outer loop
vertex 0.147345 -0.149457 0.147345
vertex -0.147345 -0.149457 0.147345
vertex -0.147345 -0.149457 -0.147345
endloop
endfacet
facet normal -0.026547 0.280845 -0.959386
outer loop
vertex 0.133600 0.044219 -0.233770
vertex 0.095675 -0.016012 -0.250352
vertex -0.109373 -0.016012 -0.244679
endloop
endfacet
facet normal 0.119835 -0.312768 -0.942240
outer loop
vertex 0.133600 0.044219 -0.233770
vertex -0.109373 -0.016012 -0.244679
vertex -0.070831 0.044219 -0.259770
endloop
endfacet
facet normal -0.536688 -0.752535 -0.381650
outer loop
vertex -0.208377 -0.149457 -0.000000
vertex -0.267422 -0.076243 -0.061333
vertex -0.145727 -0.076243 -0.232465
endloop
endfacet
facet normal -0.850430 -0.390744 -0.352260
outer loop
vertex -0.208377 -0.149457 -0.000000
vertex -0.145727 -0.076243 -0.232465
vertex -0.147345 -0.149457 -0.147345
endloop
endfacet
facet normal -0.525805 -0.017506 -0.850425
outer loop
vertex -0.233770 0.044219 -0.133600
vertex -0.208706 0.107432 -0.150398
vertex -0.041219 0.107432 -0.253953
endloop
endfacet
facet normal -0.576132 0.338361 -0.744032
outer loop
vertex -0.233770 0.044219 -0.133600
vertex -0.041219 0.107432 -0.253953
vertex -0.070831 0.044219 -0.259770
endloop
endfacet
facet normal -0.649363 -0.752535 0.109629
outer loop
vertex -0.147345 -0.149457 0.147345
vertex -0.232465 -0.076243 0.145727
vertex -0.267422 -0.076243 -0.061333
endloop
endfacet
facet normal -0.850430 -0.390745 0.352260
outer loop
vertex -0.147345 -0.149457 0.147345
vertex -0.267422 -0.076243 -0.061333
vertex -0.208377 -0.149457 -0.000000
endloop
endfacet
facet normal -0.381649 -0.752536 0.536688
outer loop
vertex -0.000000 -0.149457 0.208377
vertex -0.061333 -0.076243 0.267422
vertex -0.232465 -0.076243 0.145727
endloop
endfacet
facet normal -0.352259 -0.390744 0.850431
outer loop
vertex -0.000000 -0.149457 0.208377
vertex -0.232465 -0.076243 0.145727
vertex -0.147345 -0.149457 0.147345
endloop
endfacet
facet normal -0.850428 -0.017301 0.525807
outer loop
vertex -0.133600 0.044219 0.233770
vertex -0.150358 0.107432 0.208746
vertex -0.253913 0.107432 0.041258
endloop
endfacet
facet normal -0.744005 0.338454 0.576112
outer loop
vertex -0.133600 0.044219 0.233770
vertex -0.253913 0.107432 0.041258
vertex -0.259770 0.044219 0.070831
endloop
endfacet
facet normal 0.026547 0.280845 0.959386
outer loop
vertex -0.133600 0.044219 0.233770
vertex -0.095675 -0.016012 0.250352
vertex 0.109373 -0.016012 0.244679
endloop
endfacet
facet normal -0.119835 -0.312767 0.942240
outer loop
vertex -0.133600 0.044219 0.233770
vertex 0.109373 -0.016012 0.244679
vertex 0.070831 0.044219 0.259770
endloop
endfacet
facet normal 0.536688 -0.752535 0.381650
outer loop
vertex 0.208377 -0.149457 0.000000
vertex 0.267422 -0.076243 0.061333
vertex 0.145727 -0.076243 0.232465
endloop
endfacet
facet normal 0.850430 -0.390745 0.352260
outer loop
vertex 0.208377 -0.149457 0.000000
vertex 0.145727 -0.076243 0.232465
vertex 0.147345 -0.149457 0.147345
endloop
endfacet
facet normal 0.525799 -0.018167 0.850415
outer loop
vertex 0.233770 0.044219 0.133600
vertex 0.208786 0.107432 0.150398
vertex 0.041298 0.107432 0.253953
endloop
endfacet
facet normal 0.576274 0.337718 0.744215
outer loop
vertex 0.233770 0.044219 0.133600
vertex 0.041298 0.107432 0.253953
vertex 0.070831 0.044219 0.259770
endloop
endfacet
facet normal 0.649363 -0.752536 -0.109629
outer loop
vertex 0.147345 -0.149457 -0.147345
vertex 0.232465 -0.076243 -0.145727
vertex 0.267422 -0.076243 0.061333
endloop
endfacet
facet normal 0.850430 -0.390745 -0.352260
outer loop
vertex 0.147345 -0.149457 -0.147345
vertex 0.267422 -0.076243 0.061333
vertex 0.208377 -0.149457 0.000000
endloop
endfacet
facet normal 0.381650 -0.752535 -0.536688
outer loop
vertex -0.000000 -0.149457 -0.208377
vertex 0.061333 -0.076243 -0.267422
vertex 0.232465 -0.076243 -0.145727
endloop
endfacet
facet normal 0.352260 -0.390744 -0.850430
outer loop
vertex -0.000000 -0.149457 -0.208377
vertex 0.232465 -0.076243 -0.145727
vertex 0.147345 -0.149457 -0.147345
endloop
endfacet
facet normal 0.850412 -0.018372 -0.525797
outer loop
vertex 0.133600 0.044219 -0.233770
vertex 0.150438 0.107432 -0.208746
vertex 0.253993 0.107432 -0.041258
endloop
endfacet
facet normal 0.744241 0.337624 -0.576294
outer loop
vertex 0.133600 0.044219 -0.233770
vertex 0.253993 0.107432 -0.041258
vertex 0.259770 0.044219 -0.070831
endloop
endfacet
facet normal 0.714145 -0.182872 0.675688
outer loop
vertex 0.267422 -0.076243 0.061333
vertex 0.250352 -0.016012 0.095675
vertex 0.109373 -0.016012 0.244679
endloop
endfacet
facet normal 0.763223 0.350600 0.542743
outer loop
vertex 0.267422 -0.076243 0.061333
vertex 0.109373 -0.016012 0.244679
vertex 0.145727 -0.076243 0.232465
endloop
endfacet
facet normal 0.581528 -0.312767 0.751000
outer loop
vertex 0.250352 -0.016012 0.095675
vertex 0.233770 0.044219 0.133600
vertex 0.070831 0.044219 0.259770
endloop
endfacet
facet normal 0.697160 0.280845 0.659617
outer loop
vertex 0.250352 -0.016012 0.095675
vertex 0.070831 0.044219 0.259770
vertex 0.109373 -0.016012 0.244679
endloop
endfacet
facet normal 0.352259 -0.390746 0.850430
outer loop
vertex -0.061333 -0.076243 0.267422
vertex -0.000000 -0.149457 0.208377
vertex 0.147345 -0.149457 0.147345
endloop
endfacet
facet normal 0.109629 -0.752536 0.649363
outer loop
vertex -0.061333 -0.076243 0.267422
vertex 0.147345 -0.149457 0.147345
vertex 0.145727 -0.076243 0.232465
endloop
endfacet
facet normal 0.155903 0.350599 0.923458
outer loop
vertex -0.095675 -0.016012 0.250352
vertex -0.061333 -0.076243 0.267422
vertex 0.145727 -0.076243 0.232465
endloop
endfacet
facet normal 0.027193 -0.182871 0.982761
outer loop
vertex -0.095675 -0.016012 0.250352
vertex 0.145727 -0.076243 0.232465
vertex 0.109373 -0.016012 0.244679
endloop
endfacet
facet normal -0.675688 -0.182872 0.714145
outer loop
vertex -0.061333 -0.076243 0.267422
vertex -0.095675 -0.016012 0.250352
vertex -0.244679 -0.016012 0.109373
endloop
endfacet
facet normal -0.542744 0.350599 0.763223
outer loop
vertex -0.061333 -0.076243 0.267422
vertex -0.244679 -0.016012 0.109373
vertex -0.232465 -0.076243 0.145727
endloop
endfacet
facet normal -0.751000 -0.312767 0.581528
outer loop
vertex -0.095675 -0.016012 0.250352
vertex -0.133600 0.044219 0.233770
vertex -0.259770 0.044219 0.070831
endloop
endfacet
facet normal -0.659617 0.280845 0.697160
outer loop
vertex -0.095675 -0.016012 0.250352
vertex -0.259770 0.044219 0.070831
vertex -0.244679 -0.016012 0.109373
endloop
endfacet
facet normal 0.675688 -0.182872 -0.714145
outer loop
vertex 0.061333 -0.076243 -0.267422
vertex 0.095675 -0.016012 -0.250352
vertex 0.244679 -0.016012 -0.109373
endloop
endfacet
facet normal 0.542743 0.350599 -0.763223
outer loop
vertex 0.061333 -0.076243 -0.267422
vertex 0.244679 -0.016012 -0.109373
vertex 0.232465 -0.076243 -0.145727
endloop
endfacet
facet normal 0.751000 -0.312767 -0.581528
outer loop
vertex 0.095675 -0.016012 -0.250352
vertex 0.133600 0.044219 -0.233770
vertex 0.259770 0.044219 -0.070831
endloop
endfacet
facet normal 0.659617 0.280845 -0.697160
outer loop
vertex 0.095675 -0.016012 -0.250352
vertex 0.259770 0.044219 -0.070831
vertex 0.244679 -0.016012 -0.109373
endloop
endfacet
facet normal -0.714145 -0.182872 -0.675688
outer loop
vertex -0.267422 -0.076243 -0.061333
vertex -0.250352 -0.016012 -0.095675
vertex -0.109373 -0.016012 -0.244679
endloop
endfacet
facet normal -0.763223 0.350599 -0.542743
outer loop
vertex -0.267422 -0.076243 -0.061333
vertex -0.109373 -0.016012 -0.244679
vertex -0.145727 -0.076243 -0.232465
endloop
endfacet
facet normal -0.581528 -0.312767 -0.751000
outer loop
vertex -0.250352 -0.016012 -0.095675
vertex -0.233770 0.044219 -0.133600
vertex -0.070831 0.044219 -0.259770
endloop
endfacet
facet normal -0.697160 0.280845 -0.659617
outer loop
vertex -0.250352 -0.016012 -0.095675
vertex -0.070831 0.044219 -0.259770
vertex -0.109373 -0.016012 -0.244679
endloop
endfacet
facet normal -0.352260 -0.390744 -0.850430
outer loop
vertex 0.061333 -0.076243 -0.267422
vertex -0.000000 -0.149457 -0.208377
vertex -0.147345 -0.149457 -0.147345
endloop
endfacet
facet normal -0.109629 -0.752535 -0.649363
outer loop
vertex 0.061333 -0.076243 -0.267422
vertex -0.147345 -0.149457 -0.147345
vertex -0.145727 -0.076243 -0.232465
endloop
endfacet
facet normal -0.155903 0.350599 -0.923458
outer loop
vertex 0.095675 -0.016012 -0.250352
vertex 0.061333 -0.076243 -0.267422
vertex -0.145727 -0.076243 -0.232465
endloop
endfacet
facet normal -0.027194 -0.182872 -0.982761
outer loop
vertex 0.095675 -0.016012 -0.250352
vertex -0.145727 -0.076243 -0.232465
vertex -0.109373 -0.016012 -0.244679
endloop
endfacet
facet normal 0.962004 -0.269411 0.044343
outer loop
vertex 0.244679 -0.016012 -0.109373
vertex 0.259770 0.044219 -0.070831
vertex 0.251456 0.017457 -0.053055
endloop
endfacet
facet normal 0.726353 0.548930 -0.413626
outer loop
vertex 0.244679 -0.016012 -0.109373
vertex 0.251456 0.017457 -0.053055
vertex 0.245674 -0.016379 -0.108112
endloop
endfacet
facet normal 0.995332 0.053331 0.080440
outer loop
vertex 0.259770 0.044219 -0.070831
vertex 0.253993 0.107432 -0.041258
vertex 0.254543 0.037966 -0.002015
endloop
endfacet
facet normal 0.962575 -0.266568 0.048888
outer loop
vertex 0.259770 0.044219 -0.070831
vertex 0.254543 0.037966 -0.002015
vertex 0.251456 0.017457 -0.053055
endloop
endfacet
facet normal -0.962004 -0.269412 -0.044343
outer loop
vertex -0.244679 -0.016012 0.109373
vertex -0.259770 0.044219 0.070831
vertex -0.251456 0.017457 0.053055
endloop
endfacet
facet normal -0.726350 0.548932 0.413628
outer loop
vertex -0.244679 -0.016012 0.109373
vertex -0.251456 0.017457 0.053055
vertex -0.245674 -0.016379 0.108112
endloop
endfacet
facet normal 0.271990 -0.453373 -0.848808
outer loop
vertex 0.981576 -0.055353 -0.120154
vertex 0.981576 -0.010379 -0.144176
vertex 1.224506 -0.006755 -0.068268
endloop
endfacet
facet normal 0.271999 -0.453490 -0.848742
outer loop
vertex 0.981576 -0.055353 -0.120154
vertex 1.224506 -0.006755 -0.068268
vertex 1.224506 -0.027205 -0.057341
endloop
endfacet
facet normal 0.880618 0.425871 0.207717
outer loop
vertex 0.253993 0.107432 -0.041258
vertex 0.208786 0.107432 0.150398
vertex 0.257883 0.047401 0.065327
endloop
endfacet
facet normal 0.998725 -0.018593 -0.046924
outer loop
vertex 0.253993 0.107432 -0.041258
vertex 0.257883 0.047401 0.065327
vertex 0.254543 0.037966 -0.002015
endloop
endfacet
facet normal 0.123585 -0.896349 0.425776
outer loop
vertex 0.981576 -0.033452 0.067140
vertex 1.224506 -0.016499 0.032319
vertex 1.224506 0.001569 0.070355
endloop
endfacet
facet normal 0.123226 -0.894269 0.430230
outer loop
vertex 0.981576 -0.033452 0.067140
vertex 1.224506 0.001569 0.070355
vertex 0.981576 0.004735 0.146516
endloop
endfacet
facet normal -0.239338 0.623247 0.744500
outer loop
vertex 0.497812 0.010531 0.151473
vertex 0.500451 0.052838 0.116905
vertex 0.263606 0.028573 0.061078
endloop
endfacet
facet normal -0.244818 0.607597 0.755573
outer loop
vertex 0.497812 0.010531 0.151473
vertex 0.263606 0.028573 0.061078
vertex 0.263185 0.010377 0.075573
endloop
endfacet
facet normal 0.106718 0.993667 -0.035178
outer loop
vertex 1.224506 0.019740 0.012956
vertex 0.981576 0.046240 0.024551
vertex 0.981576 0.049707 0.122479
endloop
endfacet
facet normal 0.100608 0.993731 -0.048747
outer loop
vertex 1.224506 0.019740 0.012956
vertex 0.981576 0.049707 0.122479
vertex 1.224506 0.022019 0.059428
endloop
endfacet
facet normal 0.029139 0.998102 -0.054250
outer loop
vertex 0.981576 0.046240 0.024551
vertex 0.738646 0.053827 0.033658
vertex 0.738646 0.060506 0.156544
endloop
endfacet
facet normal 0.039436 0.998597 -0.035352
outer loop
vertex 0.981576 0.046240 0.024551
vertex 0.738646 0.060506 0.156544
vertex 0.981576 0.049707 0.122479
endloop
endfacet
facet normal -0.022973 0.998284 -0.053867
outer loop
vertex 0.738646 0.053827 0.033658
vertex 0.496441 0.047050 0.011352
vertex 0.500451 0.052838 0.116905
endloop
endfacet
facet normal -0.023110 0.998259 -0.054258
outer loop
vertex 0.738646 0.053827 0.033658
vertex 0.500451 0.052838 0.116905
vertex 0.738646 0.060506 0.156544
endloop
endfacet
facet normal 0.806039 -0.588160 0.066092
outer loop
vertex 0.232465 -0.076243 -0.145727
vertex 0.249764 -0.046619 -0.093082
vertex 0.252504 -0.035342 -0.026136
endloop
endfacet
facet normal 0.986040 0.003629 -0.166468
outer loop
vertex 0.232465 -0.076243 -0.145727
vertex 0.252504 -0.035342 -0.026136
vertex 0.267422 -0.076243 0.061333
endloop
endfacet
facet normal -0.033729 -0.920774 0.388636
outer loop
vertex 0.496046 -0.027198 0.066368
vertex 0.738646 -0.030810 0.078866
vertex 0.738646 0.012743 0.182053
endloop
endfacet
facet normal -0.043122 -0.913010 0.405653
outer loop
vertex 0.496046 -0.027198 0.066368
vertex 0.738646 0.012743 0.182053
vertex 0.497812 0.010531 0.151473
endloop
endfacet
facet normal 0.011124 -0.901081 0.433507
outer loop
vertex 0.738646 -0.030810 0.078866
vertex 0.981576 -0.033452 0.067140
vertex 0.981576 0.004735 0.146516
endloop
endfacet
facet normal 0.026507 -0.920974 0.388721
outer loop
vertex 0.738646 -0.030810 0.078866
vertex 0.981576 0.004735 0.146516
vertex 0.738646 0.012743 0.182053
endloop
endfacet
facet normal 0.271972 0.453497 0.848747
outer loop
vertex 1.224506 0.001569 0.070355
vertex 1.224506 0.022019 0.059428
vertex 0.981576 0.049707 0.122479
endloop
endfacet
facet normal 0.271982 0.453614 0.848681
outer loop
vertex 1.224506 0.001569 0.070355
vertex 0.981576 0.049707 0.122479
vertex 0.981576 0.004735 0.146516
endloop
endfacet
facet normal 0.143136 0.466530 0.872847
outer loop
vertex 0.981576 0.004735 0.146516
vertex 0.981576 0.049707 0.122479
vertex 0.738646 0.060506 0.156544
endloop
endfacet
facet normal 0.143077 0.466246 0.873008
outer loop
vertex 0.981576 0.004735 0.146516
vertex 0.738646 0.060506 0.156544
vertex 0.738646 0.012743 0.182053
endloop
endfacet
facet normal -0.159877 0.465033 0.870737
outer loop
vertex 0.738646 0.012743 0.182053
vertex 0.738646 0.060506 0.156544
vertex 0.500451 0.052838 0.116905
endloop
endfacet
facet normal -0.103217 0.633201 0.767075
outer loop
vertex 0.738646 0.012743 0.182053
vertex 0.500451 0.052838 0.116905
vertex 0.497812 0.010531 0.151473
endloop
endfacet
facet normal -0.071343 0.930729 -0.358684
outer loop
vertex 0.495871 -0.013192 -0.156962
vertex 0.252383 -0.011970 -0.105360
vertex 0.254409 0.008993 -0.051365
endloop
endfacet
facet normal -0.094079 0.908972 -0.406102
outer loop
vertex 0.495871 -0.013192 -0.156962
vertex 0.254409 0.008993 -0.051365
vertex 0.495321 0.025091 -0.071146
endloop
endfacet
facet normal -0.092767 -0.460888 -0.882596
outer loop
vertex 0.495716 -0.055502 -0.134851
vertex 0.495871 -0.013192 -0.156962
vertex 0.738646 -0.015602 -0.181221
endloop
endfacet
facet normal -0.090531 -0.469491 -0.878284
outer loop
vertex 0.495716 -0.055502 -0.134851
vertex 0.738646 -0.015602 -0.181221
vertex 0.738646 -0.063361 -0.155691
endloop
endfacet
facet normal 0.143130 -0.466572 -0.872825
outer loop
vertex 0.738646 -0.063361 -0.155691
vertex 0.738646 -0.015602 -0.181221
vertex 0.981576 -0.010379 -0.144176
endloop
endfacet
facet normal 0.143076 -0.466287 -0.872986
outer loop
vertex 0.738646 -0.063361 -0.155691
vertex 0.981576 -0.010379 -0.144176
vertex 0.981576 -0.055353 -0.120154
endloop
endfacet
facet normal 0.030058 -0.999354 0.019709
outer loop
vertex 0.738646 -0.063361 -0.155691
vertex 0.981576 -0.055353 -0.120154
vertex 0.981576 -0.053406 -0.021414
endloop
endfacet
facet normal 0.007982 -0.998193 0.059563
outer loop
vertex 0.738646 -0.063361 -0.155691
vertex 0.981576 -0.053406 -0.021414
vertex 0.738646 -0.056048 -0.033140
endloop
endfacet
facet normal -0.000000 -0.975541 0.219819
outer loop
vertex 0.738646 -0.056048 -0.033140
vertex 0.981576 -0.053406 -0.021414
vertex 0.981576 -0.033452 0.067140
endloop
endfacet
facet normal -0.000000 -0.975541 0.219819
outer loop
vertex 0.738646 -0.056048 -0.033140
vertex 0.981576 -0.033452 0.067140
vertex 0.738646 -0.030810 0.078866
endloop
endfacet
facet normal -0.027174 -0.997856 0.059543
outer loop
vertex 0.495716 -0.055502 -0.134851
vertex 0.738646 -0.063361 -0.155691
vertex 0.738646 -0.056048 -0.033140
endloop
endfacet
facet normal -0.027196 -0.997852 0.059594
outer loop
vertex 0.495716 -0.055502 -0.134851
vertex 0.738646 -0.056048 -0.033140
vertex 0.495718 -0.049159 -0.028649
endloop
endfacet
facet normal -0.023594 -0.975269 0.219758
outer loop
vertex 0.495718 -0.049159 -0.028649
vertex 0.738646 -0.056048 -0.033140
vertex 0.738646 -0.030810 0.078866
endloop
endfacet
facet normal -0.026101 -0.973963 0.225199
outer loop
vertex 0.495718 -0.049159 -0.028649
vertex 0.738646 -0.030810 0.078866
vertex 0.496046 -0.027198 0.066368
endloop
endfacet
facet normal -0.931665 0.139326 -0.335543
outer loop
vertex -0.233770 0.044219 -0.133600
vertex -0.256941 0.019390 -0.079574
vertex -0.257883 0.047401 -0.065327
endloop
endfacet
facet normal -0.903824 0.270195 -0.331809
outer loop
vertex -0.233770 0.044219 -0.133600
vertex -0.257883 0.047401 -0.065327
vertex -0.208706 0.107432 -0.150398
endloop
endfacet
facet normal 0.084867 0.964943 0.248360
outer loop
vertex -0.495321 0.025091 0.071146
vertex -0.254409 0.008993 0.051365
vertex -0.257582 0.022507 -0.000055
endloop
endfacet
facet normal 0.086879 0.962991 0.255149
outer loop
vertex -0.495321 0.025091 0.071146
vertex -0.257582 0.022507 -0.000055
vertex -0.496441 0.047050 -0.011352
endloop
endfacet
facet normal -0.031646 0.912714 -0.407371
outer loop
vertex 0.738646 -0.015602 -0.181221
vertex 0.495871 -0.013192 -0.156962
vertex 0.495321 0.025091 -0.071146
endloop
endfacet
facet normal -0.024906 0.918510 -0.394613
outer loop
vertex 0.738646 -0.015602 -0.181221
vertex 0.495321 0.025091 -0.071146
vertex 0.738646 0.028583 -0.078374
endloop
endfacet
facet normal -0.021499 0.966201 -0.256890
outer loop
vertex 0.738646 0.028583 -0.078374
vertex 0.495321 0.025091 -0.071146
vertex 0.496441 0.047050 0.011352
endloop
endfacet
facet normal -0.007053 0.975516 -0.219813
outer loop
vertex 0.738646 0.028583 -0.078374
vertex 0.496441 0.047050 0.011352
vertex 0.738646 0.053827 0.033658
endloop
endfacet
facet normal 0.040404 0.918045 -0.394413
outer loop
vertex 0.981576 -0.010379 -0.144176
vertex 0.738646 -0.015602 -0.181221
vertex 0.738646 0.028583 -0.078374
endloop
endfacet
facet normal 0.033194 0.908928 -0.415631
outer loop
vertex 0.981576 -0.010379 -0.144176
vertex 0.738646 0.028583 -0.078374
vertex 0.981576 0.026289 -0.063988
endloop
endfacet
facet normal 0.022222 0.975300 -0.219765
outer loop
vertex 0.981576 0.026289 -0.063988
vertex 0.738646 0.028583 -0.078374
vertex 0.738646 0.053827 0.033658
endloop
endfacet
facet normal 0.022222 0.975300 -0.219764
outer loop
vertex 0.981576 0.026289 -0.063988
vertex 0.738646 0.053827 0.033658
vertex 0.981576 0.046240 0.024551
endloop
endfacet
facet normal 0.115597 0.903332 -0.413072
outer loop
vertex 1.224506 -0.006755 -0.068268
vertex 0.981576 -0.010379 -0.144176
vertex 0.981576 0.026289 -0.063988
endloop
endfacet
facet normal 0.116769 0.909979 -0.397873
outer loop
vertex 1.224506 -0.006755 -0.068268
vertex 0.981576 0.026289 -0.063988
vertex 1.224506 0.010148 -0.029609
endloop
endfacet
facet normal 0.095489 0.971083 -0.218814
outer loop
vertex 1.224506 0.010148 -0.029609
vertex 0.981576 0.026289 -0.063988
vertex 0.981576 0.046240 0.024551
endloop
endfacet
facet normal 0.095489 0.971083 -0.218815
outer loop
vertex 1.224506 0.010148 -0.029609
vertex 0.981576 0.046240 0.024551
vertex 1.224506 0.019740 0.012956
endloop
endfacet
facet normal 0.796914 0.185406 -0.574938
outer loop
vertex 0.232465 -0.076243 -0.145727
vertex 0.244679 -0.016012 -0.109373
vertex 0.245674 -0.016379 -0.108112
endloop
endfacet
facet normal 0.953242 -0.020898 -0.301484
outer loop
vertex 0.232465 -0.076243 -0.145727
vertex 0.245674 -0.016379 -0.108112
vertex 0.249764 -0.046619 -0.093082
endloop
endfacet
facet normal -0.982663 0.160713 0.092438
outer loop
vertex -0.267422 -0.076243 -0.061333
vertex -0.252504 -0.035342 0.026136
vertex -0.254179 -0.013697 -0.029293
endloop
endfacet
facet normal -0.969127 0.238069 -0.064160
outer loop
vertex -0.267422 -0.076243 -0.061333
vertex -0.254179 -0.013697 -0.029293
vertex -0.250352 -0.016012 -0.095675
endloop
endfacet
facet normal 0.109066 -0.993756 0.023524
outer loop
vertex 0.981576 -0.055353 -0.120154
vertex 1.224506 -0.027205 -0.057341
vertex 1.224506 -0.026090 -0.010247
endloop
endfacet
facet normal 0.110830 -0.993646 0.019596
outer loop
vertex 0.981576 -0.055353 -0.120154
vertex 1.224506 -0.026090 -0.010247
vertex 0.981576 -0.053406 -0.021414
endloop
endfacet
facet normal 0.099099 -0.970739 0.218737
outer loop
vertex 0.981576 -0.053406 -0.021414
vertex 1.224506 -0.026090 -0.010247
vertex 1.224506 -0.016499 0.032319
endloop
endfacet
facet normal 0.099099 -0.970739 0.218737
outer loop
vertex 0.981576 -0.053406 -0.021414
vertex 1.224506 -0.016499 0.032319
vertex 0.981576 -0.033452 0.067140
endloop
endfacet
facet normal 1.000000 -0.000004 0.000000
outer loop
vertex 1.224506 -0.026090 -0.010247
vertex 1.224506 -0.027205 -0.057341
vertex 1.224506 -0.006755 -0.068268
endloop
endfacet
facet normal 1.000000 0.000021 0.000000
outer loop
vertex 1.224506 -0.006755 -0.068268
vertex 1.224506 0.010148 -0.029609
vertex 1.224506 0.019740 0.012956
endloop
endfacet
facet normal 1.000000 0.000004 0.000000
outer loop
vertex 1.224506 0.019740 0.012956
vertex 1.224506 0.022019 0.059428
vertex 1.224506 0.001569 0.070355
endloop
endfacet
facet normal 1.000000 0.000018 0.000000
outer loop
vertex 1.224506 0.001569 0.070355
vertex 1.224506 -0.016499 0.032319
vertex 1.224506 -0.026090 -0.010247
endloop
endfacet
facet normal 1.000000 0.000000 0.000000
outer loop
vertex 1.224506 -0.026090 -0.010247
vertex 1.224506 -0.006755 -0.068268
vertex 1.224506 0.019740 0.012956
endloop
endfacet
facet normal 1.000000 -0.000005 0.000000
outer loop
vertex 1.224506 0.019740 0.012956
vertex 1.224506 0.001569 0.070355
vertex 1.224506 -0.026090 -0.010247
endloop
endfacet
facet normal -1.000000 -0.000006 0.000000
outer loop
vertex -1.224506 -0.026090 0.010247
vertex -1.224506 -0.027205 0.057341
vertex -1.224506 -0.006755 0.068268
endloop
endfacet
facet normal -1.000000 0.000021 0.000000
outer loop
vertex -1.224506 -0.006755 0.068268
vertex -1.224506 0.010148 0.029609
vertex -1.224506 0.019740 -0.012956
endloop
endfacet
facet normal -1.000000 -0.000010 0.000000
outer loop
vertex -1.224506 0.019740 -0.012956
vertex -1.224506 0.022019 -0.059428
vertex -1.224506 0.001569 -0.070355
endloop
endfacet
facet normal -1.000000 0.000000 0.000000
outer loop
vertex -1.224506 0.001569 -0.070355
vertex -1.224506 -0.016499 -0.032319
vertex -1.224506 -0.026090 0.010247
endloop
endfacet
facet normal -1.000000 0.000000 0.000000
outer loop
vertex -1.224506 -0.026090 0.010247
vertex -1.224506 -0.006755 0.068268
vertex -1.224506 0.019740 -0.012956
endloop
endfacet
facet normal -1.000000 0.000005 0.000000
outer loop
vertex -1.224506 0.019740 -0.012956
vertex -1.224506 0.001569 -0.070355
vertex -1.224506 -0.026090 0.010247
endloop
endfacet
facet normal -0.271990 -0.453373 0.848808
outer loop
vertex -0.981576 -0.055353 0.120154
vertex -0.981576 -0.010379 0.144176
vertex -1.224506 -0.006755 0.068268
endloop
endfacet
facet normal -0.271999 -0.453491 0.848742
outer loop
vertex -0.981576 -0.055353 0.120154
vertex -1.224506 -0.006755 0.068268
vertex -1.224506 -0.027205 0.057341
endloop
endfacet
facet normal -0.880180 0.426825 -0.207613
outer loop
vertex -0.253913 0.107432 0.041258
vertex -0.208706 0.107432 -0.150398
vertex -0.257883 0.047401 -0.065327
endloop
endfacet
facet normal -0.998737 -0.017535 0.047074
outer loop
vertex -0.253913 0.107432 0.041258
vertex -0.257883 0.047401 -0.065327
vertex -0.254543 0.037966 0.002015
endloop
endfacet
facet normal -0.123585 -0.896349 -0.425776
outer loop
vertex -0.981576 -0.033452 -0.067140
vertex -1.224506 -0.016499 -0.032319
vertex -1.224506 0.001569 -0.070355
endloop
endfacet
facet normal -0.123226 -0.894269 -0.430230
outer loop
vertex -0.981576 -0.033452 -0.067140
vertex -1.224506 0.001569 -0.070355
vertex -0.981576 0.004735 -0.146516
endloop
endfacet
facet normal 0.239338 0.623246 -0.744500
outer loop
vertex -0.497812 0.010531 -0.151473
vertex -0.500451 0.052838 -0.116905
vertex -0.263606 0.028573 -0.061078
endloop
endfacet
facet normal 0.244817 0.607597 -0.755572
outer loop
vertex -0.497812 0.010531 -0.151473
vertex -0.263606 0.028573 -0.061078
vertex -0.263185 0.010377 -0.075573
endloop
endfacet
facet normal -0.106718 0.993667 0.035178
outer loop
vertex -1.224506 0.019740 -0.012956
vertex -0.981576 0.046240 -0.024551
vertex -0.981576 0.049707 -0.122479
endloop
endfacet
facet normal -0.100608 0.993731 0.048747
outer loop
vertex -1.224506 0.019740 -0.012956
vertex -0.981576 0.049707 -0.122479
vertex -1.224506 0.022019 -0.059428
endloop
endfacet
facet normal -0.029139 0.998102 0.054250
outer loop
vertex -0.981576 0.046240 -0.024551
vertex -0.738646 0.053827 -0.033658
vertex -0.738646 0.060506 -0.156544
endloop
endfacet
facet normal -0.039436 0.998597 0.035352
outer loop
vertex -0.981576 0.046240 -0.024551
vertex -0.738646 0.060506 -0.156544
vertex -0.981576 0.049707 -0.122479
endloop
endfacet
facet normal 0.022973 0.998284 0.053867
outer loop
vertex -0.738646 0.053827 -0.033658
vertex -0.496441 0.047050 -0.011352
vertex -0.500451 0.052838 -0.116905
endloop
endfacet
facet normal 0.023110 0.998259 0.054258
outer loop
vertex -0.738646 0.053827 -0.033658
vertex -0.500451 0.052838 -0.116905
vertex -0.738646 0.060506 -0.156544
endloop
endfacet
facet normal -0.806037 -0.588163 -0.066092
outer loop
vertex -0.232465 -0.076243 0.145727
vertex -0.249764 -0.046619 0.093082
vertex -0.252504 -0.035342 0.026136
endloop
endfacet
facet normal -0.986040 0.003628 0.166468
outer loop
vertex -0.232465 -0.076243 0.145727
vertex -0.252504 -0.035342 0.026136
vertex -0.267422 -0.076243 -0.061333
endloop
endfacet
facet normal 0.033729 -0.920774 -0.388637
outer loop
vertex -0.496046 -0.027198 -0.066368
vertex -0.738646 -0.030810 -0.078866
vertex -0.738646 0.012743 -0.182053
endloop
endfacet
facet normal 0.043122 -0.913010 -0.405653
outer loop
vertex -0.496046 -0.027198 -0.066368
vertex -0.738646 0.012743 -0.182053
vertex -0.497812 0.010531 -0.151473
endloop
endfacet
facet normal -0.011124 -0.901081 -0.433507
outer loop
vertex -0.738646 -0.030810 -0.078866
vertex -0.981576 -0.033452 -0.067140
vertex -0.981576 0.004735 -0.146516
endloop
endfacet
facet normal -0.026507 -0.920974 -0.388721
outer loop
vertex -0.738646 -0.030810 -0.078866
vertex -0.981576 0.004735 -0.146516
vertex -0.738646 0.012743 -0.182053
endloop
endfacet
facet normal -0.271973 0.453495 -0.848748
outer loop
vertex -1.224506 0.001569 -0.070355
vertex -1.224506 0.022019 -0.059428
vertex -0.981576 0.049707 -0.122479
endloop
endfacet
facet normal -0.271982 0.453614 -0.848681
outer loop
vertex -1.224506 0.001569 -0.070355
vertex -0.981576 0.049707 -0.122479
vertex -0.981576 0.004735 -0.146516
endloop
endfacet
facet normal -0.143136 0.466530 -0.872847
outer loop
vertex -0.981576 0.004735 -0.146516
vertex -0.981576 0.049707 -0.122479
vertex -0.738646 0.060506 -0.156544
endloop
endfacet
facet normal -0.143077 0.466246 -0.873008
outer loop
vertex -0.981576 0.004735 -0.146516
vertex -0.738646 0.060506 -0.156544
vertex -0.738646 0.012743 -0.182053
endloop
endfacet
facet normal 0.159877 0.465033 -0.870738
outer loop
vertex -0.738646 0.012743 -0.182053
vertex -0.738646 0.060506 -0.156544
vertex -0.500451 0.052838 -0.116905
endloop
endfacet
facet normal 0.103217 0.633201 -0.767075
outer loop
vertex -0.738646 0.012743 -0.182053
vertex -0.500451 0.052838 -0.116905
vertex -0.497812 0.010531 -0.151473
endloop
endfacet
facet normal -0.985762 -0.160151 -0.051233
outer loop
vertex -0.250352 -0.016012 -0.095675
vertex -0.254179 -0.013697 -0.029293
vertex -0.256941 0.019390 -0.079574
endloop
endfacet
facet normal -0.920153 0.006820 -0.391501
outer loop
vertex -0.250352 -0.016012 -0.095675
vertex -0.256941 0.019390 -0.079574
vertex -0.233770 0.044219 -0.133600
endloop
endfacet
facet normal 0.092767 -0.460888 0.882596
outer loop
vertex -0.495716 -0.055502 0.134851
vertex -0.495871 -0.013192 0.156962
vertex -0.738646 -0.015602 0.181221
endloop
endfacet
facet normal 0.090531 -0.469491 0.878284
outer loop
vertex -0.495716 -0.055502 0.134851
vertex -0.738646 -0.015602 0.181221
vertex -0.738646 -0.063361 0.155691
endloop
endfacet
facet normal -0.143130 -0.466572 0.872825
outer loop
vertex -0.738646 -0.063361 0.155691
vertex -0.738646 -0.015602 0.181221
vertex -0.981576 -0.010379 0.144176
endloop
endfacet
facet normal -0.143076 -0.466287 0.872986
outer loop
vertex -0.738646 -0.063361 0.155691
vertex -0.981576 -0.010379 0.144176
vertex -0.981576 -0.055353 0.120154
endloop
endfacet
facet normal -0.030058 -0.999354 -0.019709
outer loop
vertex -0.738646 -0.063361 0.155691
vertex -0.981576 -0.055353 0.120154
vertex -0.981576 -0.053406 0.021414
endloop
endfacet
facet normal -0.007982 -0.998193 -0.059563
outer loop
vertex -0.738646 -0.063361 0.155691
vertex -0.981576 -0.053406 0.021414
vertex -0.738646 -0.056048 0.033140
endloop
endfacet
facet normal -0.000000 -0.975541 -0.219819
outer loop
vertex -0.738646 -0.056048 0.033140
vertex -0.981576 -0.053406 0.021414
vertex -0.981576 -0.033452 -0.067140
endloop
endfacet
facet normal -0.000000 -0.975541 -0.219819
outer loop
vertex -0.738646 -0.056048 0.033140
vertex -0.981576 -0.033452 -0.067140
vertex -0.738646 -0.030810 -0.078866
endloop
endfacet
facet normal 0.027174 -0.997856 -0.059543
outer loop
vertex -0.495716 -0.055502 0.134851
vertex -0.738646 -0.063361 0.155691
vertex -0.738646 -0.056048 0.033140
endloop
endfacet
facet normal 0.027196 -0.997852 -0.059594
outer loop
vertex -0.495716 -0.055502 0.134851
vertex -0.738646 -0.056048 0.033140
vertex -0.495718 -0.049159 0.028649
endloop
endfacet
facet normal 0.023594 -0.975269 -0.219758
outer loop
vertex -0.495718 -0.049159 0.028649
vertex -0.738646 -0.056048 0.033140
vertex -0.738646 -0.030810 -0.078866
endloop
endfacet
facet normal 0.026101 -0.973963 -0.225199
outer loop
vertex -0.495718 -0.049159 0.028649
vertex -0.738646 -0.030810 -0.078866
vertex -0.496046 -0.027198 -0.066368
endloop
endfacet
facet normal 0.982663 0.160713 -0.092438
outer loop
vertex 0.267422 -0.076243 0.061333
vertex 0.252504 -0.035342 -0.026136
vertex 0.254179 -0.013697 0.029293
endloop
endfacet
facet normal 0.969127 0.238069 0.064160
outer loop
vertex 0.267422 -0.076243 0.061333
vertex 0.254179 -0.013697 0.029293
vertex 0.250352 -0.016012 0.095675
endloop
endfacet
facet normal 0.031646 0.912714 0.407371
outer loop
vertex -0.738646 -0.015602 0.181221
vertex -0.495871 -0.013192 0.156962
vertex -0.495321 0.025091 0.071146
endloop
endfacet
facet normal 0.024906 0.918510 0.394613
outer loop
vertex -0.738646 -0.015602 0.181221
vertex -0.495321 0.025091 0.071146
vertex -0.738646 0.028583 0.078374
endloop
endfacet
facet normal 0.021499 0.966201 0.256890
outer loop
vertex -0.738646 0.028583 0.078374
vertex -0.495321 0.025091 0.071146
vertex -0.496441 0.047050 -0.011352
endloop
endfacet
facet normal 0.007053 0.975516 0.219813
outer loop
vertex -0.738646 0.028583 0.078374
vertex -0.496441 0.047050 -0.011352
vertex -0.738646 0.053827 -0.033658
endloop
endfacet
facet normal -0.040404 0.918045 0.394413
outer loop
vertex -0.981576 -0.010379 0.144176
vertex -0.738646 -0.015602 0.181221
vertex -0.738646 0.028583 0.078374
endloop
endfacet
facet normal -0.033194 0.908928 0.415631
outer loop
vertex -0.981576 -0.010379 0.144176
vertex -0.738646 0.028583 0.078374
vertex -0.981576 0.026289 0.063988
endloop
endfacet
facet normal -0.022222 0.975300 0.219765
outer loop
vertex -0.981576 0.026289 0.063988
vertex -0.738646 0.028583 0.078374
vertex -0.738646 0.053827 -0.033658
endloop
endfacet
facet normal -0.022222 0.975300 0.219765
outer loop
vertex -0.981576 0.026289 0.063988
vertex -0.738646 0.053827 -0.033658
vertex -0.981576 0.046240 -0.024551
endloop
endfacet
facet normal -0.115597 0.903332 0.413072
outer loop
vertex -1.224506 -0.006755 0.068268
vertex -0.981576 -0.010379 0.144176
vertex -0.981576 0.026289 0.063988
endloop
endfacet
facet normal -0.116769 0.909979 0.397873
outer loop
vertex -1.224506 -0.006755 0.068268
vertex -0.981576 0.026289 0.063988
vertex -1.224506 0.010148 0.029609
endloop
endfacet
facet normal -0.095489 0.971083 0.218814
outer loop
vertex -1.224506 0.010148 0.029609
vertex -0.981576 0.026289 0.063988
vertex -0.981576 0.046240 -0.024551
endloop
endfacet
facet normal -0.095489 0.971083 0.218814
outer loop
vertex -1.224506 0.010148 0.029609
vertex -0.981576 0.046240 -0.024551
vertex -1.224506 0.019740 -0.012956
endloop
endfacet
facet normal -0.796913 0.185407 0.574938
outer loop
vertex -0.232465 -0.076243 0.145727
vertex -0.244679 -0.016012 0.109373
vertex -0.245674 -0.016379 0.108112
endloop
endfacet
facet normal -0.953242 -0.020899 0.301485
outer loop
vertex -0.232465 -0.076243 0.145727
vertex -0.245674 -0.016379 0.108112
vertex -0.249764 -0.046619 0.093082
endloop
endfacet
facet normal -0.995258 0.054531 -0.080545
outer loop
vertex -0.259770 0.044219 0.070831
vertex -0.253913 0.107432 0.041258
vertex -0.254543 0.037966 0.002015
endloop
endfacet
facet normal -0.962574 -0.266572 -0.048888
outer loop
vertex -0.259770 0.044219 0.070831
vertex -0.254543 0.037966 0.002015
vertex -0.251456 0.017457 0.053055
endloop
endfacet
facet normal -0.109066 -0.993756 -0.023524
outer loop
vertex -0.981576 -0.055353 0.120154
vertex -1.224506 -0.027205 0.057341
vertex -1.224506 -0.026090 0.010247
endloop
endfacet
facet normal -0.110830 -0.993646 -0.019596
outer loop
vertex -0.981576 -0.055353 0.120154
vertex -1.224506 -0.026090 0.010247
vertex -0.981576 -0.053406 0.021414
endloop
endfacet
facet normal -0.099099 -0.970739 -0.218737
outer loop
vertex -0.981576 -0.053406 0.021414
vertex -1.224506 -0.026090 0.010247
vertex -1.224506 -0.016499 -0.032319
endloop
endfacet
facet normal -0.099099 -0.970739 -0.218737
outer loop
vertex -0.981576 -0.053406 0.021414
vertex -1.224506 -0.016499 -0.032319
vertex -0.981576 -0.033452 -0.067140
endloop
endfacet
facet normal 0.228077 0.797986 -0.557852
outer loop
vertex 0.000310 0.155140 -0.201880
vertex 0.143386 0.155140 -0.143384
vertex 0.150438 0.107432 -0.208746
endloop
endfacet
facet normal 0.173847 0.653121 -0.737028
outer loop
vertex 0.000310 0.155140 -0.201880
vertex 0.150438 0.107432 -0.208746
vertex -0.041219 0.107432 -0.253953
endloop
endfacet
facet normal -0.228750 0.801852 0.552003
outer loop
vertex 0.000310 0.155140 0.201880
vertex -0.140850 0.155140 0.143384
vertex -0.150358 0.107432 0.208746
endloop
endfacet
facet normal -0.173623 0.654249 0.736080
outer loop
vertex 0.000310 0.155140 0.201880
vertex -0.150358 0.107432 0.208746
vertex 0.041298 0.107432 0.253953
endloop
endfacet
facet normal -0.097646 0.991244 -0.088885
outer loop
vertex 0.496441 0.047050 0.011352
vertex 0.257582 0.022507 0.000055
vertex 0.263606 0.028573 0.061078
endloop
endfacet
facet normal -0.089851 0.994642 -0.051126
outer loop
vertex 0.496441 0.047050 0.011352
vertex 0.263606 0.028573 0.061078
vertex 0.500451 0.052838 0.116905
endloop
endfacet
facet normal -0.137228 -0.904485 0.403826
outer loop
vertex 0.258385 -0.009705 0.024788
vertex 0.496046 -0.027198 0.066368
vertex 0.497812 0.010531 0.151473
endloop
endfacet
facet normal -0.120668 -0.919188 0.374877
outer loop
vertex 0.258385 -0.009705 0.024788
vertex 0.497812 0.010531 0.151473
vertex 0.263185 0.010377 0.075573
endloop
endfacet
facet normal -0.104973 -0.968852 0.224290
outer loop
vertex 0.255941 -0.023209 -0.028775
vertex 0.495718 -0.049159 -0.028649
vertex 0.496046 -0.027198 0.066368
endloop
endfacet
facet normal -0.114164 -0.962069 0.247769
outer loop
vertex 0.255941 -0.023209 -0.028775
vertex 0.496046 -0.027198 0.066368
vertex 0.258385 -0.009705 0.024788
endloop
endfacet
facet normal -0.093647 -0.993835 0.059355
outer loop
vertex 0.254713 -0.030149 -0.090582
vertex 0.495716 -0.055502 -0.134851
vertex 0.495718 -0.049159 -0.028649
endloop
endfacet
facet normal -0.106967 -0.987816 0.113035
outer loop
vertex 0.254713 -0.030149 -0.090582
vertex 0.495718 -0.049159 -0.028649
vertex 0.255941 -0.023209 -0.028775
endloop
endfacet
facet normal 0.985762 -0.160151 0.051233
outer loop
vertex 0.250352 -0.016012 0.095675
vertex 0.254179 -0.013697 0.029293
vertex 0.256941 0.019390 0.079574
endloop
endfacet
facet normal 0.920153 0.006820 0.391501
outer loop
vertex 0.250352 -0.016012 0.095675
vertex 0.256941 0.019390 0.079574
vertex 0.233770 0.044219 0.133600
endloop
endfacet
facet normal -0.163232 -0.634858 -0.755189
outer loop
vertex 0.254713 -0.030149 -0.090582
vertex 0.252383 -0.011970 -0.105360
vertex 0.495871 -0.013192 -0.156962
endloop
endfacet
facet normal -0.206940 -0.452531 -0.867405
outer loop
vertex 0.254713 -0.030149 -0.090582
vertex 0.495871 -0.013192 -0.156962
vertex 0.495716 -0.055502 -0.134851
endloop
endfacet
facet normal -0.084867 0.964943 -0.248360
outer loop
vertex 0.495321 0.025091 -0.071146
vertex 0.254409 0.008993 -0.051365
vertex 0.257582 0.022507 0.000055
endloop
endfacet
facet normal -0.086879 0.962991 -0.255149
outer loop
vertex 0.495321 0.025091 -0.071146
vertex 0.257582 0.022507 0.000055
vertex 0.496441 0.047050 0.011352
endloop
endfacet
facet normal 0.071343 0.930729 0.358684
outer loop
vertex -0.495871 -0.013192 0.156962
vertex -0.252383 -0.011970 0.105360
vertex -0.254409 0.008993 0.051365
endloop
endfacet
facet normal 0.094079 0.908972 0.406102
outer loop
vertex -0.495871 -0.013192 0.156962
vertex -0.254409 0.008993 0.051365
vertex -0.495321 0.025091 0.071146
endloop
endfacet
facet normal 0.163232 -0.634858 0.755189
outer loop
vertex -0.254713 -0.030149 0.090582
vertex -0.252383 -0.011970 0.105360
vertex -0.495871 -0.013192 0.156962
endloop
endfacet
facet normal 0.206940 -0.452531 0.867405
outer loop
vertex -0.254713 -0.030149 0.090582
vertex -0.495871 -0.013192 0.156962
vertex -0.495716 -0.055502 0.134851
endloop
endfacet
facet normal 0.093647 -0.993835 -0.059355
outer loop
vertex -0.254713 -0.030149 0.090582
vertex -0.495716 -0.055502 0.134851
vertex -0.495718 -0.049159 0.028649
endloop
endfacet
facet normal 0.106967 -0.987816 -0.113035
outer loop
vertex -0.254713 -0.030149 0.090582
vertex -0.495718 -0.049159 0.028649
vertex -0.255941 -0.023209 0.028775
endloop
endfacet
facet normal 0.104973 -0.968852 -0.224290
outer loop
vertex -0.255941 -0.023209 0.028775
vertex -0.495718 -0.049159 0.028649
vertex -0.496046 -0.027198 -0.066368
endloop
endfacet
facet normal 0.114164 -0.962069 -0.247769
outer loop
vertex -0.255941 -0.023209 0.028775
vertex -0.496046 -0.027198 -0.066368
vertex -0.258385 -0.009705 -0.024788
endloop
endfacet
facet normal 0.137228 -0.904485 -0.403826
outer loop
vertex -0.258385 -0.009705 -0.024788
vertex -0.496046 -0.027198 -0.066368
vertex -0.497812 0.010531 -0.151473
endloop
endfacet
facet normal 0.120668 -0.919188 -0.374877
outer loop
vertex -0.258385 -0.009705 -0.024788
vertex -0.497812 0.010531 -0.151473
vertex -0.263185 0.010377 -0.075573
endloop
endfacet
facet normal 0.097646 0.991244 0.088885
outer loop
vertex -0.496441 0.047050 -0.011352
vertex -0.257582 0.022507 -0.000055
vertex -0.263606 0.028573 -0.061078
endloop
endfacet
facet normal 0.089851 0.994642 0.051126
outer loop
vertex -0.496441 0.047050 -0.011352
vertex -0.263606 0.028573 -0.061078
vertex -0.500451 0.052838 -0.116905
endloop
endfacet
facet normal 0.942294 0.298641 -0.151313
outer loop
vertex 0.254409 0.008993 -0.051365
vertex 0.252383 -0.011970 -0.105360
vertex 0.251456 0.017457 -0.053055
endloop
endfacet
facet normal -0.345107 0.815360 -0.464855
outer loop
vertex 0.252383 -0.011970 -0.105360
vertex 0.245674 -0.016379 -0.108112
vertex 0.251456 0.017457 -0.053055
endloop
endfacet
facet normal 0.957258 -0.289078 0.009520
outer loop
vertex 0.252504 -0.035342 -0.026136
vertex 0.249764 -0.046619 -0.093082
vertex 0.254713 -0.030149 -0.090582
endloop
endfacet
facet normal 0.962725 -0.270249 0.011225
outer loop
vertex 0.252504 -0.035342 -0.026136
vertex 0.254713 -0.030149 -0.090582
vertex 0.255941 -0.023209 -0.028775
endloop
endfacet
facet normal -0.942296 0.298634 0.151312
outer loop
vertex -0.254409 0.008993 0.051365
vertex -0.252383 -0.011970 0.105360
vertex -0.251456 0.017457 0.053055
endloop
endfacet
facet normal 0.345104 0.815363 0.464851
outer loop
vertex -0.252383 -0.011970 0.105360
vertex -0.245674 -0.016379 0.108112
vertex -0.251456 0.017457 0.053055
endloop
endfacet
facet normal -0.957258 -0.289078 -0.009520
outer loop
vertex -0.252504 -0.035342 0.026136
vertex -0.249764 -0.046619 0.093082
vertex -0.254713 -0.030149 0.090582
endloop
endfacet
facet normal -0.962725 -0.270249 -0.011225
outer loop
vertex -0.252504 -0.035342 0.026136
vertex -0.254713 -0.030149 0.090582
vertex -0.255941 -0.023209 0.028775
endloop
endfacet
facet normal -0.893811 -0.208272 0.397145
outer loop
vertex -0.252383 -0.011970 0.105360
vertex -0.254713 -0.030149 0.090582
vertex -0.249764 -0.046619 0.093082
endloop
endfacet
facet normal -0.531230 -0.318357 0.785139
outer loop
vertex -0.252383 -0.011970 0.105360
vertex -0.249764 -0.046619 0.093082
vertex -0.245674 -0.016379 0.108112
endloop
endfacet
facet normal -0.765316 0.271159 -0.583750
outer loop
vertex -0.257883 0.047401 -0.065327
vertex -0.256941 0.019390 -0.079574
vertex -0.263185 0.010377 -0.075573
endloop
endfacet
facet normal -0.930061 0.215547 -0.297533
outer loop
vertex -0.257883 0.047401 -0.065327
vertex -0.263185 0.010377 -0.075573
vertex -0.263606 0.028573 -0.061078
endloop
endfacet
facet normal 0.893811 -0.208273 -0.397145
outer loop
vertex 0.252383 -0.011970 -0.105360
vertex 0.254713 -0.030149 -0.090582
vertex 0.249764 -0.046619 -0.093082
endloop
endfacet
facet normal 0.531229 -0.318358 -0.785140
outer loop
vertex 0.252383 -0.011970 -0.105360
vertex 0.249764 -0.046619 -0.093082
vertex 0.245674 -0.016379 -0.108112
endloop
endfacet
facet normal 0.765316 0.271160 0.583750
outer loop
vertex 0.257883 0.047401 0.065327
vertex 0.256941 0.019390 0.079574
vertex 0.263185 0.010377 0.075573
endloop
endfacet
facet normal 0.930061 0.215547 0.297534
outer loop
vertex 0.257883 0.047401 0.065327
vertex 0.263185 0.010377 0.075573
vertex 0.263606 0.028573 0.061078
endloop
endfacet
facet normal -0.626576 -0.634793 0.452151
outer loop
vertex 0.256941 0.019390 0.079574
vertex 0.254179 -0.013697 0.029293
vertex 0.263185 0.010377 0.075573
endloop
endfacet
facet normal 0.768498 -0.616537 0.171152
outer loop
vertex 0.254179 -0.013697 0.029293
vertex 0.258385 -0.009705 0.024788
vertex 0.263185 0.010377 0.075573
endloop
endfacet
facet normal 0.963658 -0.257417 0.071413
outer loop
vertex 0.254179 -0.013697 0.029293
vertex 0.252504 -0.035342 -0.026136
vertex 0.255941 -0.023209 -0.028775
endloop
endfacet
facet normal 0.751758 -0.646748 0.128755
outer loop
vertex 0.254179 -0.013697 0.029293
vertex 0.255941 -0.023209 -0.028775
vertex 0.258385 -0.009705 0.024788
endloop
endfacet
facet normal -0.977598 0.176881 0.114085
outer loop
vertex -0.263606 0.028573 -0.061078
vertex -0.257582 0.022507 -0.000055
vertex -0.254543 0.037966 0.002015
endloop
endfacet
facet normal -0.947038 0.308209 0.090143
outer loop
vertex -0.263606 0.028573 -0.061078
vertex -0.254543 0.037966 0.002015
vertex -0.257883 0.047401 -0.065327
endloop
endfacet
facet normal -0.943409 0.301775 0.137515
outer loop
vertex -0.257582 0.022507 -0.000055
vertex -0.254409 0.008993 0.051365
vertex -0.251456 0.017457 0.053055
endloop
endfacet
facet normal -0.976132 0.174574 0.129194
outer loop
vertex -0.257582 0.022507 -0.000055
vertex -0.251456 0.017457 0.053055
vertex -0.254543 0.037966 0.002015
endloop
endfacet
facet normal 0.977598 0.176882 -0.114085
outer loop
vertex 0.263606 0.028573 0.061078
vertex 0.257582 0.022507 0.000055
vertex 0.254543 0.037966 -0.002015
endloop
endfacet
facet normal 0.947039 0.308206 -0.090143
outer loop
vertex 0.263606 0.028573 0.061078
vertex 0.254543 0.037966 -0.002015
vertex 0.257883 0.047401 0.065327
endloop
endfacet
facet normal 0.943409 0.301775 -0.137515
outer loop
vertex 0.257582 0.022507 0.000055
vertex 0.254409 0.008993 -0.051365
vertex 0.251456 0.017457 -0.053055
endloop
endfacet
facet normal 0.976132 0.174574 -0.129195
outer loop
vertex 0.257582 0.022507 0.000055
vertex 0.251456 0.017457 -0.053055
vertex 0.254543 0.037966 -0.002015
endloop
endfacet
facet normal 0.626576 -0.634793 -0.452151
outer loop
vertex -0.256941 0.019390 -0.079574
vertex -0.254179 -0.013697 -0.029293
vertex -0.263185 0.010377 -0.075573
endloop
endfacet
facet normal -0.768495 -0.616540 -0.171152
outer loop
vertex -0.254179 -0.013697 -0.029293
vertex -0.258385 -0.009705 -0.024788
vertex -0.263185 0.010377 -0.075573
endloop
endfacet
facet normal -0.963657 -0.257420 -0.071413
outer loop
vertex -0.254179 -0.013697 -0.029293
vertex -0.252504 -0.035342 0.026136
vertex -0.255941 -0.023209 0.028775
endloop
endfacet
facet normal -0.751760 -0.646745 -0.128755
outer loop
vertex -0.254179 -0.013697 -0.029293
vertex -0.255941 -0.023209 0.028775
vertex -0.258385 -0.009705 -0.024788
endloop
endfacet
facet normal 0.931665 0.139326 0.335543
outer loop
vertex 0.233770 0.044219 0.133600
vertex 0.256941 0.019390 0.079574
vertex 0.257883 0.047401 0.065327
endloop
endfacet
facet normal 0.904114 0.269157 0.331863
outer loop
vertex 0.233770 0.044219 0.133600
vertex 0.257883 0.047401 0.065327
vertex 0.208786 0.107432 0.150398
endloop
endfacet
endsolid Exported from Blender-3.0.1
